<svg xmlns="http://www.w3.org/2000/svg" viewBox="0 0 512 512" role="img" aria-labelledby="title desc">
  <title>A2 DVS Access Gate</title>
  <desc>DVS-inspired access gate with a red movement path and circuit nodes.</desc>
  <rect width="512" height="512" rx="112" fill="#1D388C"/>
  <path d="M112 96h206l76 72v248h-76V191l-38-35h-92v260h-76z" fill="#FFFFFF"/>
  <path d="M248 221h71l-34-51 45-29 87 126-87 126-45-29 36-54h-73z" fill="#E6002D"/>
  <path d="M78 125h73M78 198h73M78 320h73M78 392h73" fill="none" stroke="#FFF200" stroke-width="10" stroke-linecap="round"/>
  <g fill="#FFF200" stroke="#FFFFFF" stroke-width="6">
    <circle cx="77" cy="125" r="15"/><circle cx="77" cy="198" r="15"/><circle cx="77" cy="320" r="15"/><circle cx="77" cy="392" r="15"/>
  </g>
  <rect x="206" y="250" width="25" height="25" rx="7" fill="#FFF200"/>
</svg>
